<svg width="157" height="69" viewBox="0 0 157 69" fill="none" xmlns="http://www.w3.org/2000/svg">
<path d="M36.6606 53.5623L48.1966 14.3623H54.8046L42.9326 53.5623H36.6606ZM12.9166 53.5623L1.21262 14.3623H7.76462L19.2446 53.5623H12.9166ZM13.7566 53.5623L24.7886 14.3623H30.7806L19.8046 53.5623H13.7566ZM36.0446 53.5623L25.2366 14.3623H31.2286L42.3726 53.5623H36.0446ZM70.4072 54.2343C67.6072 54.2343 65.1058 53.6183 62.9032 52.3863C60.7378 51.1169 59.0392 49.3809 57.8072 47.1783C56.5752 44.9756 55.9592 42.4369 55.9592 39.5623C55.9592 36.6876 56.5565 34.1489 57.7512 31.9463C58.9832 29.7436 60.6818 28.0263 62.8472 26.7943C65.0125 25.5249 67.4952 24.8903 70.2952 24.8903C73.0952 24.8903 75.5778 25.5249 77.7432 26.7943C79.9085 28.0263 81.5885 29.7436 82.7832 31.9463C84.0152 34.1489 84.6312 36.6876 84.6312 39.5623C84.6312 42.4369 84.0338 44.9756 82.8392 47.1783C81.6445 49.3809 79.9645 51.1169 77.7992 52.3863C75.6338 53.6183 73.1698 54.2343 70.4072 54.2343ZM70.4072 48.4663C71.9378 48.4663 73.3005 48.0929 74.4952 47.3463C75.6898 46.5623 76.6232 45.5169 77.2952 44.2103C77.9672 42.8663 78.3032 41.3169 78.3032 39.5623C78.3032 37.8076 77.9485 36.2769 77.2392 34.9703C76.5672 33.6263 75.6338 32.5809 74.4392 31.8343C73.2445 31.0503 71.8632 30.6583 70.2952 30.6583C68.7272 30.6583 67.3458 31.0316 66.1512 31.7783C64.9565 32.5249 64.0232 33.5703 63.3512 34.9143C62.6792 36.2583 62.3432 37.8076 62.3432 39.5623C62.3432 41.3169 62.6792 42.8663 63.3512 44.2103C64.0605 45.5169 65.0125 46.5623 66.2072 47.3463C67.4392 48.0929 68.8392 48.4663 70.4072 48.4663ZM109.946 53.5623L109.61 48.4103V25.5623H115.826V53.5623H109.946ZM90.5702 41.5783V25.5623H96.8422V39.8983L90.5702 41.5783ZM96.8422 39.8983C96.8422 42.1009 97.1036 43.8183 97.6262 45.0503C98.1489 46.2823 98.8582 47.1409 99.7542 47.6263C100.688 48.1116 101.752 48.3543 102.946 48.3543C105.074 48.3916 106.717 47.7009 107.874 46.2823C109.032 44.8636 109.61 42.8289 109.61 40.1783H111.962C111.962 43.1276 111.514 45.6663 110.618 47.7943C109.76 49.8849 108.528 51.4903 106.922 52.6103C105.354 53.6929 103.469 54.2343 101.266 54.2343C97.8689 54.2343 95.2369 53.1889 93.3702 51.0983C91.5036 49.0076 90.5702 45.8343 90.5702 41.5783L96.8422 39.8983ZM135.06 54.2343C132.11 54.2343 129.852 53.5063 128.284 52.0503C126.753 50.5569 125.988 48.4289 125.988 45.6663V16.8263H132.204V44.4903C132.204 45.7969 132.502 46.7863 133.1 47.4583C133.734 48.1303 134.649 48.4663 135.844 48.4663C136.217 48.4663 136.628 48.3916 137.076 48.2423C137.524 48.0929 138.028 47.8129 138.588 47.4023L140.884 52.1623C139.913 52.8343 138.942 53.3383 137.972 53.6743C137.001 54.0476 136.03 54.2343 135.06 54.2343ZM121.34 30.9383V25.5623H139.764V30.9383H121.34ZM150.044 54.3463C148.961 54.3463 148.028 53.9729 147.244 53.2263C146.497 52.4423 146.124 51.5089 146.124 50.4263C146.124 49.3436 146.497 48.4103 147.244 47.6263C148.028 46.8423 148.961 46.4503 150.044 46.4503C151.127 46.4503 152.06 46.8423 152.844 47.6263C153.628 48.4103 154.02 49.3436 154.02 50.4263C154.02 51.5089 153.628 52.4423 152.844 53.2263C152.06 53.9729 151.127 54.3463 150.044 54.3463Z" fill="white"/>
</svg>

    